<?xml version="1.0" standalone="no"?>
<!DOCTYPE svg PUBLIC "-//W3C//DTD SVG 20010904//EN"
 "http://www.w3.org/TR/2001/REC-SVG-20010904/DTD/svg10.dtd">
<svg version="1.0" xmlns="http://www.w3.org/2000/svg"
 width="300.000000pt" height="149.000000pt" viewBox="0 0 300.000000 149.000000"
 preserveAspectRatio="xMidYMid meet">
<metadata>
Created by potrace 1.10, written by Peter Selinger 2001-2011
</metadata>
<g transform="translate(0.000000,149.000000) scale(0.100000,-0.100000)"
fill="#000000" stroke="none">
<path d="M280 921 c-6 -11 -10 -90 -10 -185 0 -211 -16 -196 217 -196 l173 0
0 134 c0 74 -3 141 -6 150 -5 13 -26 16 -123 16 -99 0 -120 3 -146 20 -16 11
-34 20 -40 20 -5 0 7 -12 28 -26 35 -23 48 -26 134 -26 128 -1 130 -3 132
-136 2 -135 3 -134 -186 -130 -108 2 -137 6 -135 16 1 8 -2 11 -7 8 -15 -10
-19 16 -16 134 4 202 1 187 36 199 32 11 111 0 134 -19 6 -5 64 -10 129 -11
74 -2 123 -7 134 -15 14 -10 18 -34 20 -139 4 -157 1 -172 -41 -185 l-32 -10
35 5 c18 3 38 11 42 18 13 21 10 311 -4 325 -8 8 -52 12 -134 12 -106 0 -124
2 -147 20 -37 29 -171 29 -187 1z"/>
<path d="M940 830 c0 -36 2 -40 26 -40 22 0 25 4 21 21 -5 18 -2 20 40 17 53
-3 75 -26 57 -55 -8 -13 -27 -19 -62 -21 -62 -4 -82 -25 -82 -89 0 -39 2 -43
25 -43 23 0 25 4 25 45 l0 45 44 0 c87 0 130 77 76 135 -21 22 -32 25 -97 25
l-73 0 0 -40z"/>
<path d="M2010 745 l0 -125 45 0 c94 0 155 49 155 126 0 76 -62 124 -162 124
l-38 0 0 -125z m139 49 c12 -15 21 -37 21 -50 0 -35 -39 -72 -80 -76 l-35 -3
-3 78 -3 77 40 0 c31 0 44 -6 60 -26z"/>
<path d="M2337 857 c-8 -21 8 -39 29 -35 27 5 25 42 -2 46 -12 2 -24 -3 -27
-11z"/>
<path d="M1460 825 c0 -14 -7 -28 -15 -31 -21 -9 -20 -46 2 -42 14 3 16 -4 14
-44 -3 -54 22 -88 64 -88 32 0 34 31 3 45 -18 8 -23 18 -23 50 0 35 3 40 21
37 15 -2 23 4 27 18 4 17 0 20 -24 20 -26 0 -28 2 -22 30 5 27 3 30 -21 30
-21 0 -26 -5 -26 -25z"/>
<path d="M1173 782 c-19 -12 -33 -60 -33 -113 0 -46 2 -49 25 -49 24 0 25 3
25 61 0 51 3 62 19 66 11 3 21 13 24 24 4 15 0 19 -21 19 -15 0 -32 -4 -39 -8z"/>
<path d="M1275 765 c-56 -55 -13 -145 70 -145 66 0 102 102 52 148 -33 31 -90
30 -122 -3z m89 -21 c20 -19 21 -58 2 -74 -43 -35 -99 28 -61 70 22 24 38 25
59 4z"/>
<path d="M1595 765 c-56 -55 -13 -145 70 -145 66 0 102 102 52 148 -33 31 -90
30 -122 -3z m89 -21 c20 -19 21 -58 2 -74 -43 -35 -99 28 -61 70 22 24 38 25
59 4z"/>
<path d="M1790 770 c-16 -16 -20 -33 -20 -85 0 -58 2 -65 20 -65 16 0 19 8 22
61 2 45 8 65 20 72 30 19 48 -8 48 -74 0 -52 2 -59 20 -59 18 0 20 7 20 65 0
78 -19 105 -75 105 -22 0 -43 -8 -55 -20z"/>
<path d="M2256 774 c-10 -9 -16 -33 -16 -62 0 -26 -3 -57 -6 -69 -5 -20 -2
-23 20 -23 25 0 26 2 26 61 0 52 3 62 20 66 11 3 20 14 20 24 0 24 -42 26 -64
3z"/>
<path d="M2340 705 c0 -84 0 -85 25 -85 25 0 25 0 23 85 -3 81 -4 85 -25 85
-22 0 -23 -3 -23 -85z"/>
<path d="M2400 788 c0 -2 13 -40 29 -84 39 -107 59 -111 94 -17 14 37 28 76
32 86 6 13 2 17 -18 17 -21 0 -26 -7 -37 -47 -19 -72 -23 -73 -40 -13 -12 43
-21 56 -38 58 -12 2 -22 2 -22 0z"/>
<path d="M2593 775 c-44 -31 -35 -131 12 -149 38 -14 99 3 110 32 4 12 -2 13
-38 8 -49 -7 -77 0 -77 19 0 10 17 12 65 10 72 -4 77 2 50 54 -22 44 -80 56
-122 26z m83 -32 c17 -17 16 -18 -25 -21 -50 -4 -59 1 -41 23 17 20 44 19 66
-2z"/>
</g>
</svg>
